<?xml version="1.0" encoding="UTF-8" standalone="no"?>
<!-- Created with Inkscape (http://www.inkscape.org/) -->

<svg
   width="2cm"
   height="2cm"
   viewBox="-1 -1 75.590553 75.590553"
   version="1.1"
   id="svg1"
   inkscape:version="1.3.2 (091e20e, 2023-11-25, custom)"
   sodipodi:docname="ships.svg"
   xmlns:inkscape="http://www.inkscape.org/namespaces/inkscape"
   xmlns:sodipodi="http://sodipodi.sourceforge.net/DTD/sodipodi-0.dtd"
   xmlns="http://www.w3.org/2000/svg"
   xmlns:svg="http://www.w3.org/2000/svg">
  <sodipodi:namedview
     id="namedview1"
     pagecolor="#505050"
     bordercolor="#eeeeee"
     borderopacity="1"
     inkscape:showpageshadow="0"
     inkscape:pageopacity="0"
     inkscape:pagecheckerboard="0"
     inkscape:deskcolor="#505050"
     inkscape:document-units="mm"
     showgrid="true"
     inkscape:zoom="2.8400393"
     inkscape:cx="62.499135"
     inkscape:cy="70.949722"
     inkscape:window-width="1920"
     inkscape:window-height="1011"
     inkscape:window-x="-9"
     inkscape:window-y="-9"
     inkscape:window-maximized="1"
     inkscape:current-layer="layer1">
    <inkscape:grid
       id="grid3"
       units="px"
       originx="0"
       originy="0"
       spacingx="1"
       spacingy="1"
       empcolor="#0099e5"
       empopacity="0.30196078"
       color="#0099e5"
       opacity="0.14901961"
       empspacing="5"
       dotted="false"
       gridanglex="30"
       gridanglez="30"
       visible="true" />
  </sodipodi:namedview>
  <defs
     id="defs1" />
  <g
     inkscape:label="Layer 1"
     inkscape:groupmode="layer"
     id="layer1">
    <path
       id="rect17"
       style="fill:#ff0000;stroke:#000000;stroke-width:0.903989"
       d="M -56.681038,46.486549 H -43.20493 V 73.69486 l -12.595838,-4.401348 z"
       sodipodi:nodetypes="ccccc"
       inkscape:label="ship4_2.booter1" />
    <path
       id="rect18"
       style="fill:#ff0000;stroke:#000000;stroke-width:1.07236"
       d="m -27.019798,46.570732 h 13.307738 l -3.16897,24.399135 -10.138768,5.105563 z"
       sodipodi:nodetypes="ccccc"
       inkscape:label="ship4_2.booster2" />
    <path
       id="path8"
       style="fill:#00ff00;stroke:#000000;stroke-width:1.1028"
       d="m -1.922821,36.097694 c 4e-7,18.529757 -4.6307265,27.993925 -20.86349,39.857262 -8.053323,5.885584 -1.34338,-4.919964 -1.34338,-4.919964 l 6.312679,-9.330131 -0.380499,-14.344747 -37.8203,-0.268272 c 0.288863,9.267927 0.439104,12.531091 4.678356,17.543372 1.206384,1.426368 3.201537,1.621496 5.064025,3.820663 0.68738,0.811637 3.553168,5.370969 3.413601,5.370969 -20.081961,0 -31.784205,-17.475308 -31.784205,-37.729152 0,-19.382976 10.926125,-34.8803171 29.80961,-36.20929568 0.07213,-0.005076 -8.579988,6.77897178 -11.063938,14.91104968 -2.871075,9.399466 0.323451,20.26527 -0.358928,19.127645 l 14.593182,-10.156135 10.173107,-0.352069 14.668654,10.630293 C -14.660858,27.605684 -14.489192,20.66423 -17.056282,13.971754 -18.004891,7.8206631 -22.937144,5.1552618 -25.877575,0.74701578 -9.6735277,5.9925314 -1.9228215,12.924077 -1.922821,36.097694 Z"
       sodipodi:nodetypes="ssccccssssssccccccs"
       inkscape:label="ship4_1" />
    <rect
       style="fill:#ff0000;stroke:#000000"
       id="rect16"
       width="11.795611"
       height="13.908258"
       x="-42.196613"
       y="23.647547"
       inkscape:label="ship4_2.cabin" />
    <path
       id="path2"
       style="fill:#00ff00;stroke:#000000"
       d="M 36.783203,-0.12890625 C 30.148191,-0.12918785 24.769357,5.4446524 24.769531,12.320312 c 0.0026,5.487982 1.356523,10.326814 6.426658,11.91211 l 0.02658,34.962093 C 32.126764,69.484718 9.2533775,59.109761 8.7879949,40.14507 L -0.29950526,39.008449 C -1.0149334,68.387831 28.022488,74.114322 39.009017,74.985744 c 15.561114,-0.4308 35.479339,-20.15738 34.358939,-35.651338 -1.001642,0.918906 -9.010214,-0.6676 -9.218177,0.688429 C 62.117187,53.276418 42.363184,73.427726 42.536108,59.082299 L 41.996753,24.356911 c 5.069362,-1.586028 6.795846,-6.549173 6.798171,-12.036599 1.74e-4,-6.8748692 -5.37747,-12.44838216 -12.011719,-12.44921825 z"
       sodipodi:nodetypes="ccccccccsccccc"
       inkscape:label="ship1_1" />
    <path
       id="path4"
       style="fill:#ff0000;stroke:#000000"
       d="m 44.879799,12.322867 a 7.8428011,7.9672904 89.682075 0 0 0.0324,-0.498236 7.8428011,7.9672904 89.682075 0 0 -8.010187,-7.7974692 7.8428011,7.9672904 89.682075 0 0 -7.923161,7.8858832 7.8428011,7.9672904 89.682075 0 0 0.02039,0.497939 z"
       inkscape:transform-center-x="0.1482255"
       inkscape:transform-center-y="-0.80212569"
       inkscape:label="ship1_2.cabin" />
    <rect
       style="fill:#ff0000;stroke:#000000;stroke-width:1.03309"
       id="rect5"
       width="9.9260197"
       height="26.85651"
       x="21.424551"
       y="49.559044"
       inkscape:label="ship1_2.booster1" />
    <rect
       style="fill:#ff0000;stroke:#000000;stroke-width:0.989203"
       id="rect6"
       width="9.9699106"
       height="26.526936"
       x="42.56572"
       y="49.910568"
       inkscape:label="ship1_2.booster2" />
    <path
       id="rect7"
       style="fill:#00ff00;stroke:#000000"
       d="m 103.86972,18.827608 10.15804,-18.8316961 10.0549,19.9520901 -4.5078,23.907459 4.15426,4.683749 25.90662,-17.254968 -25.81582,42.97139 -4.7057,-4.715366 c -3.38785,-0.13749 -6.76025,0.07132 -10.13995,0.262263 l -4.21646,4.436152 -28.948122,-42.622593 27.647302,17.427064 5.32043,-4.873877 z"
       sodipodi:nodetypes="cccccccccccccc"
       inkscape:label="ship2_1" />
    <path
       id="rect9"
       style="fill:#ff0000;stroke:#000000"
       d="m 114.02776,10.328491 4.67534,14.302638 -10.01845,-0.315645 z"
       sodipodi:nodetypes="cccc"
       inkscape:label="ship2_2.cabin" />
    <path
       id="rect10"
       style="fill:#ff0000;stroke:#000000"
       d="m 103.69517,48.795562 5.35302,-4.730578 v 25.893694 l -4.60609,4.108134 z"
       sodipodi:nodetypes="ccccc"
       inkscape:label="ship2_2.booster1" />
    <path
       id="rect11"
       style="fill:#ff0000;stroke:#000000"
       d="m 119.25629,44.43845 4.23262,3.610178 0.49796,26.26716 -4.73058,-4.481601 z"
       sodipodi:nodetypes="ccccc"
       inkscape:label="ship2_2.booster2" />
    <path
       id="rect12"
       style="fill:#00ff00;stroke:#000000"
       d="m 178.38852,4.1040451 5.602,-4.108134 0.17334,19.1719759 14.86034,-0.123781 -0.006,-19.5563548 5.11712,5.2858476 4.28443,24.7352082 19.34117,24.485336 0.0298,14.525633 -19.52353,-8.964796 -33.86252,-1.17377 -20.03028,11.302314 0.10261,-15.967625 20.17665,-24.340605 z"
       sodipodi:nodetypes="ccccccccccccccc"
       inkscape:label="ship3_1" />
    <rect
       style="fill:#ff0000;stroke:#000000;stroke-width:0.635096"
       id="rect13"
       width="5.5934372"
       height="15.303573"
       x="188.78763"
       y="19.358219"
       inkscape:label="ship3_2.cabin" />
    <rect
       style="fill:#ff0000;stroke:#000000"
       id="rect14"
       width="9.7101345"
       height="29.75285"
       x="173.78242"
       y="39.08543"
       inkscape:label="ship3_2.booster1" />
    <rect
       style="fill:#ff0000;stroke:#000000"
       id="rect15"
       width="9.336668"
       height="30.250805"
       x="199.42714"
       y="38.960941"
       inkscape:label="ship3_2.booster2" />
  </g>
</svg>
